HIERARCHY
ROOT Hips
{
	OFFSET 0.00000 0.00000 0.00000
	CHANNELS 6 Xposition Yposition Zposition Zrotation Yrotation Xrotation 
	JOINT LHipJoint
	{
		OFFSET 0 0 0
		CHANNELS 3 Zrotation Yrotation Xrotation
		JOINT LeftHip
		{
			OFFSET 1.62964 -1.40469 0.78906
			CHANNELS 3 Zrotation Yrotation Xrotation
			JOINT LeftKnee
			{
				OFFSET 2.29640 -6.30932 0.00000
				CHANNELS 3 Zrotation Yrotation Xrotation
				JOINT LeftAnkle
				{
					OFFSET 2.29451 -6.30412 0.00000
					CHANNELS 3 Zrotation Yrotation Xrotation
					JOINT LeftToe
					{
						OFFSET 0.03611 -0.09921 1.56387
						CHANNELS 3 Zrotation Yrotation Xrotation
						End Site
						{
							OFFSET 0.00000 -0.00000 0.80291
						}
					}
				}
			}
		}
	}
	JOINT RHipJoint
	{
		OFFSET 0 0 0
		CHANNELS 3 Zrotation Yrotation Xrotation
		JOINT RightHip
		{
			OFFSET -1.73712 -1.40469 0.78906
			CHANNELS 3 Zrotation Yrotation Xrotation
			JOINT RightKnee
			{
				OFFSET -2.28137 -6.26801 0.00000
				CHANNELS 3 Zrotation Yrotation Xrotation
				JOINT RightAnkle
				{
					OFFSET -2.28681 -6.28298 0.00000
					CHANNELS 3 Zrotation Yrotation Xrotation
					JOINT RightToe
					{
						OFFSET -0.15927 -0.43759 1.61103
						CHANNELS 3 Zrotation Yrotation Xrotation
						End Site
						{
							OFFSET -0.00000 -0.00000 0.84630
						}
					}
				}
			}
		}
	}
	JOINT lowerback
	{
		OFFSET 0 0 0
		CHANNELS 3 Zrotation Yrotation Xrotation
		JOINT Chest
		{
			OFFSET -0.04227 2.04338 -0.00225
			CHANNELS 3 Zrotation Yrotation Xrotation
			JOINT Chest2
			{
				OFFSET -0.02148 2.04482 -0.04273
				CHANNELS 3 Zrotation Yrotation Xrotation
				JOINT lowerneck
				{
					OFFSET 0 0 0
					CHANNELS 3 Zrotation Yrotation Xrotation
					JOINT Neck
					{
						OFFSET 0.09180 1.44629 0.19359
						CHANNELS 3 Zrotation Yrotation Xrotation
						JOINT Head
						{
							OFFSET 0.00887 1.40645 0.14750
							CHANNELS 3 Zrotation Yrotation Xrotation
							End Site
							{
								OFFSET -0.00669 1.50671 0.03707
							}
						}
					}
				}
				JOINT LeftCollar
				{
					OFFSET 0 0 0
					CHANNELS 3 Zrotation Yrotation Xrotation
					JOINT LeftShoulder
					{
						OFFSET 2.17674 1.86763 -0.06520
CHANNELS 3 Zrotation Xrotation Yrotation
						JOINT LeftElbow
						{
OFFSET 0 -4.657760 0.000000
CHANNELS 3 Zrotation Xrotation Yrotation
							JOINT LeftWrist
							{
OFFSET 0 -3.555390 0.000000
CHANNELS 3 Zrotation Xrotation Yrotation
								JOINT lhand
								{
									OFFSET 0 0 0
CHANNELS 3 Zrotation Xrotation Yrotation
									JOINT LFingers
									{
OFFSET 0 -0.707260 0.000000
CHANNELS 3 Zrotation Xrotation Yrotation
										End Site
										{
OFFSET 0 -0.570220 0.000000
										}
									}
								}
								JOINT LThumb
								{
OFFSET 0 0.000000 0.000000
CHANNELS 3 Zrotation Xrotation Yrotation
									End Site
									{
OFFSET 0 -0.578920 0.578920
									}
								}
							}
						}
					}
				}
				JOINT RightCollar
				{
					OFFSET 0 0 0
					CHANNELS 3 Zrotation Yrotation Xrotation
					JOINT RightShoulder
					{
						OFFSET -2.80694 1.55459 -0.32496
CHANNELS 3 Zrotation Xrotation Yrotation
						JOINT RightElbow
						{
OFFSET 0 -4.719250 -0.000000
CHANNELS 3 Zrotation Xrotation Yrotation
							JOINT RightWrist
							{
OFFSET 0 -3.569900 0.000000
CHANNELS 3 Zrotation Xrotation Yrotation
								JOINT rhand
								{
									OFFSET 0 0 0
CHANNELS 3 Zrotation Xrotation Yrotation
									JOINT RFingers
									{
OFFSET 0 -0.507760 0.000000
CHANNELS 3 Zrotation Xrotation Yrotation
										End Site
										{
OFFSET 0 -0.409370 0.000000
										}
									}
								}
								JOINT RThumb
								{
OFFSET 0 0.000000 0.000000
CHANNELS 3 Zrotation Xrotation Yrotation
									End Site
									{
OFFSET 0 -0.415620 0.415620
									}
								}
							}
						}
					}
				}
			}
		}
	}
}
MOTION
Frames: 11
Frame Time: 0.008333333333333333
9.477019 16.305965 18.243055 179.156663 -3.133050 -146.093290 0.000000 0.000000 0.000000 -11.471870 -23.390335 -36.748012 1.353828 7.365562 20.803099 0.542090 2.732722 -15.170405 6.026655 -14.454149 -45.088719 0.000000 0.000000 0.000000 11.115224 22.595265 -37.379884 -1.325219 -7.290412 20.578736 -1.550664 -0.986168 -23.917383 -3.578519 11.577411 -34.252883 -6.175316 -1.750899 -25.031459 -0.419277 -1.231727 -2.720233 2.604412 -1.129948 11.034413 -4.633093 -8.221136 5.126569 9.284237 -11.225963 -17.213959 4.291812 -6.260311 -5.194820 0.000000 0.000000 0.000000 19.803599 6.989199 -53.424676 20.767676 -31.556106 5.927909 23.551293 -6.391187 13.513345 0.000000 0.000000 0.000000 -7.125000 0.000000 0.000000 -2.621159 15.300145 -1.838593 0.000000 0.000000 0.000000 -2.271068 10.352039 18.284634 -20.245056 -30.936433 -5.656796 -14.519044 7.788307 47.679154 0.000000 0.000000 0.000000 7.125000 0.000000 0.000000 46.906814 74.273060 -34.165304
9.488451 16.284787 18.276366 178.954745 -3.284099 -145.667387 0.000000 0.000000 0.000000 -11.092222 -24.011462 -38.377776 1.610955 8.003761 22.725578 0.596271 2.623637 -15.773453 6.118963 -14.542581 -45.457156 0.000000 0.000000 0.000000 10.649899 22.574226 -38.871505 -1.517052 -7.777923 22.041641 -1.649310 -0.907295 -24.627440 -3.709342 11.763277 -34.899522 -6.303776 -1.810178 -24.525453 -0.465125 -1.308258 -2.800187 2.611233 -1.159059 10.681223 -5.344871 -7.647163 5.405302 8.889714 -10.489396 -16.594574 4.239450 -5.790673 -5.087293 0.000000 0.000000 0.000000 20.343431 7.409172 -53.770566 21.233334 -32.099713 6.173480 23.665714 -6.623674 13.420660 0.000000 0.000000 0.000000 -7.125000 0.000000 0.000000 -2.537394 15.387158 -1.774896 0.000000 0.000000 0.000000 -2.432020 10.977030 18.485754 -20.819814 -31.617421 -5.955249 -14.543989 7.610860 48.130602 0.000000 0.000000 0.000000 7.125000 0.000000 0.000000 48.233888 74.548187 -35.485342
9.498673 16.262125 18.309611 178.904334 -3.604297 -145.343469 0.000000 0.000000 0.000000 -10.554214 -24.504326 -39.957684 1.882824 8.617311 24.605592 0.650792 2.149857 -16.166106 6.030273 -14.457609 -45.103227 0.000000 0.000000 0.000000 10.429625 22.599691 -40.076124 -1.688039 -8.183551 23.272917 -1.711307 -0.945992 -25.095195 -3.677606 11.718583 -34.743549 -6.217694 -1.845508 -23.857353 -0.450228 -1.419744 -2.876897 2.557144 -1.190788 10.247272 -4.960869 -8.136356 5.010241 9.270166 -11.144360 -17.230987 4.329266 -6.202905 -5.167474 0.000000 0.000000 0.000000 20.790448 7.742690 -54.023444 21.600719 -32.522837 6.369832 23.488551 -6.880048 13.374767 0.000000 0.000000 0.000000 -7.125000 0.000000 0.000000 -2.656326 15.456407 -1.854290 0.000000 0.000000 0.000000 -2.615529 11.661399 18.755550 -21.443165 -32.342021 -6.285417 -14.300776 7.204195 48.249008 0.000000 0.000000 0.000000 7.125000 0.000000 0.000000 48.806763 74.524145 -35.928406
9.507503 16.228947 18.347011 178.945554 -3.901398 -144.916147 0.000000 0.000000 0.000000 -9.844210 -24.963549 -41.799688 2.198740 9.267886 26.637247 0.721871 1.631923 -16.720750 5.812260 -14.243859 -44.223472 0.000000 0.000000 0.000000 10.250905 22.648408 -41.492430 -1.885929 -8.623988 24.626357 -1.760786 -0.929538 -25.445457 -3.643225 11.669842 -34.573787 -6.001375 -1.845282 -23.481959 -0.441275 -1.483450 -2.853581 2.431539 -1.200650 10.075785 -4.870598 -8.119509 5.227833 9.297515 -11.163023 -17.924449 4.375867 -6.250637 -5.422749 0.000000 0.000000 0.000000 21.252272 7.897782 -54.185974 21.963342 -32.935536 6.565854 23.365072 -7.269151 13.599539 0.000000 0.000000 0.000000 -7.125000 0.000000 0.000000 -2.753869 15.228203 -1.936046 0.000000 0.000000 0.000000 -2.704236 12.023506 18.846258 -22.004795 -32.982373 -6.588463 -13.980776 7.048180 48.116457 0.000000 0.000000 0.000000 7.125000 0.000000 0.000000 48.683862 74.327191 -35.646217
9.516337 16.181525 18.390583 179.074446 -3.941119 -144.253067 0.000000 0.000000 0.000000 -8.928775 -25.362650 -44.039089 2.553646 9.934611 28.765396 0.787683 1.457807 -17.353973 5.732836 -14.164336 -43.899849 0.000000 0.000000 0.000000 9.954060 22.830959 -43.494950 -2.162642 -9.196614 26.412549 -1.854281 -0.619358 -25.994513 -3.688013 11.733183 -34.794633 -5.855306 -1.743161 -23.337302 -0.405423 -1.404645 -2.918850 2.417490 -1.154437 9.915636 -5.590233 -8.145340 5.133594 9.950538 -11.130122 -17.419510 4.648015 -6.219416 -5.163829 0.000000 0.000000 0.000000 21.654747 8.054441 -54.433309 22.303251 -33.317980 6.751621 23.466141 -7.545400 13.849021 0.000000 0.000000 0.000000 -7.125000 0.000000 0.000000 -2.699230 14.948183 -1.913766 0.000000 0.000000 0.000000 -2.888079 12.526813 18.983035 -22.642647 -33.695590 -6.939085 -14.291231 6.959095 47.878880 0.000000 0.000000 0.000000 7.125000 0.000000 0.000000 47.701128 74.305824 -34.832844
9.525449 16.136183 18.416499 178.909130 -4.338679 -144.313616 0.000000 0.000000 0.000000 -8.722728 -25.754588 -45.139227 2.871734 10.484001 30.559084 0.826958 0.995409 -17.568708 5.731562 -14.162981 -43.894626 0.000000 0.000000 0.000000 9.869528 22.560760 -44.351826 -2.407310 -9.666989 27.905318 -1.966177 -0.588464 -26.753292 -3.717155 11.774248 -34.937901 -5.837937 -1.798274 -22.391940 -0.413085 -1.505720 -2.870629 2.388655 -1.176045 9.473342 -6.218630 -8.127951 5.429272 10.553754 -11.064814 -17.306012 4.935588 -6.187237 -5.104812 0.000000 0.000000 0.000000 22.145038 8.449657 -54.718450 22.743013 -33.806474 6.994783 23.595045 -7.632921 13.908293 0.000000 0.000000 0.000000 -7.125000 0.000000 0.000000 -2.614808 14.869403 -1.858196 0.000000 0.000000 0.000000 -3.100221 13.345230 19.318295 -23.473829 -34.602673 -7.405741 -14.810973 6.766409 48.072754 0.000000 0.000000 0.000000 7.125000 0.000000 0.000000 47.822661 74.615853 -35.213984
9.533695 16.075126 18.460201 179.022306 -4.506032 -143.802060 0.000000 0.000000 0.000000 -7.945585 -25.858686 -47.260836 3.251945 11.091457 32.589684 0.885060 0.418470 -17.937086 5.535038 -13.962047 -43.085634 0.000000 0.000000 0.000000 9.689721 22.625400 -46.214609 -2.730384 -10.244919 29.773778 -2.058001 -0.483203 -27.333333 -3.827206 11.926784 -35.473498 -5.586204 -1.728192 -21.948376 -0.389993 -1.498355 -2.921251 2.283930 -1.152388 9.173882 -6.767874 -8.108627 5.487896 11.141771 -10.999781 -17.159127 5.192086 -6.161812 -5.001602 0.000000 0.000000 0.000000 22.615234 8.761767 -54.861925 23.305082 -34.420678 7.310035 23.680626 -7.764481 13.848707 0.000000 0.000000 0.000000 -7.125000 0.000000 0.000000 -2.552697 14.923701 -1.810998 0.000000 0.000000 0.000000 -3.303588 13.956605 19.602396 -24.303550 -35.483390 -7.882163 -14.453093 6.292646 48.338488 0.000000 0.000000 0.000000 7.125000 0.000000 0.000000 48.949514 74.632816 -36.145373
9.547263 16.011342 18.506189 178.992202 -4.876161 -143.347865 0.000000 0.000000 0.000000 -7.297686 -25.994389 -49.385633 3.693614 11.740543 34.820939 0.956569 -0.324840 -18.384395 5.446174 -13.869237 -42.716401 0.000000 0.000000 0.000000 9.467313 22.502117 -47.993244 -3.063473 -10.796481 31.597113 -2.161006 -0.387373 -27.976403 -3.831990 11.933315 -35.496478 -5.470885 -1.762690 -21.362567 -0.348101 -1.598991 -2.961325 2.249248 -1.182458 8.822404 -7.376697 -8.076795 5.551253 11.753996 -10.924128 -17.014347 5.466220 -6.129673 -4.896132 0.000000 0.000000 0.000000 23.002637 8.959474 -54.944117 23.801282 -34.953368 7.592462 23.569027 -8.111536 13.832345 0.000000 0.000000 0.000000 -7.125000 0.000000 0.000000 -2.627905 14.954376 -1.862829 0.000000 0.000000 0.000000 -3.514567 14.468546 19.903096 -25.030593 -36.234941 -8.308089 -14.553578 6.123195 48.147250 0.000000 0.000000 0.000000 7.125000 0.000000 0.000000 48.276750 74.561518 -35.532305
9.557838 15.936642 18.541986 179.042008 -5.015725 -143.100401 0.000000 0.000000 0.000000 -7.011167 -25.674509 -51.198020 4.151776 12.358967 37.015028 1.003496 -0.979296 -18.632718 5.601102 -14.030363 -43.359072 0.000000 0.000000 0.000000 9.368130 22.439325 -49.531052 -3.436596 -11.369716 33.537963 -2.313466 0.207910 -28.756710 -3.654947 11.686531 -34.631906 -5.356558 -1.712575 -20.862699 -0.309498 -1.558128 -2.857092 2.249102 -1.144404 8.665267 -8.152354 -8.017462 5.745877 12.488886 -10.818488 -16.938752 5.816360 -6.084858 -4.819617 0.000000 0.000000 0.000000 23.295029 9.005888 -54.940738 24.210698 -35.386149 7.828269 23.394306 -8.503624 13.891560 0.000000 0.000000 0.000000 -7.125000 0.000000 0.000000 -2.750855 14.910635 -1.952634 0.000000 0.000000 0.000000 -3.858482 14.933544 20.397549 -25.897910 -37.107365 -8.826114 -15.501308 6.288226 48.448838 0.000000 0.000000 0.000000 7.125000 0.000000 0.000000 48.390271 75.096286 -36.114296
9.569847 15.853017 18.584053 179.145285 -5.050937 -142.795437 0.000000 0.000000 0.000000 -6.669505 -25.263996 -53.150968 4.639514 12.965212 39.239754 1.053238 -1.777441 -18.885760 5.448671 -13.870186 -42.723253 0.000000 0.000000 0.000000 9.280155 22.396597 -51.260351 -3.865174 -11.978097 35.655546 -2.464515 0.840100 -29.501832 -3.603459 11.613194 -34.376925 -5.193788 -1.607684 -20.043427 -0.319567 -1.502007 -2.981089 2.181417 -1.095090 8.078843 -8.745050 -7.989926 5.816349 13.023184 -10.759437 -16.686737 6.061040 -6.051350 -4.688558 0.000000 0.000000 0.000000 23.668476 9.426482 -54.932215 24.669285 -35.863950 8.095400 23.512823 -8.821589 14.131608 0.000000 0.000000 0.000000 -7.125000 0.000000 0.000000 -2.684401 14.638558 -1.920979 0.000000 0.000000 0.000000 -4.085558 15.738181 20.808310 -26.835735 -38.021685 -9.397869 -15.724173 6.215453 48.575439 0.000000 0.000000 0.000000 7.125000 0.000000 0.000000 48.604397 75.253871 -36.433836
9.583931 15.761733 18.629865 179.151511 -5.165060 -142.470055 0.000000 0.000000 0.000000 -6.193695 -25.158245 -55.113601 5.149753 13.549761 41.464283 1.113683 -2.977538 -19.177534 4.644091 -12.970694 -39.260166 0.000000 0.000000 0.000000 9.065240 22.314640 -53.043886 -4.322384 -12.576711 37.805111 -2.623279 1.332543 -30.319358 -3.544957 11.528854 -34.085116 -5.182010 -1.565582 -19.673893 -0.316440 -1.429167 -2.798140 2.203963 -1.046970 8.075333 -9.563638 -7.918561 6.121694 13.908841 -10.638268 -16.670360 6.478676 -6.012197 -4.639523 0.000000 0.000000 0.000000 23.971637 9.317859 -54.842376 25.098987 -36.304959 8.348515 23.686459 -8.998703 14.287862 0.000000 0.000000 0.000000 -7.125000 0.000000 0.000000 -2.575935 14.449623 -1.853621 0.000000 0.000000 0.000000 -4.251200 16.024947 20.975641 -27.688886 -38.827735 -9.928201 -15.857668 6.270738 48.540505 0.000000 0.000000 0.000000 7.125000 0.000000 0.000000 48.376514 75.285684 -36.275485
